<svg width="22" height="24" viewBox="0 0 22 24" fill="none" xmlns="http://www.w3.org/2000/svg">
<path d="M10.1855 9.73486C8.04555 9.59892 3.2785 6.78328 7.91693 4.05961C11.7327 1.81903 15.2717 3.39014 17.4492 5.78423C17.4492 5.78423 16.1973 6.57417 14.7412 7.28611C15.7701 4.92895 11.9374 3.61233 9.7395 4.83736C7.54161 6.06239 7.32577 8.57526 12.7342 8.42887L10.1855 9.73486ZM21.978 16.6116V5.59486L10.7658 0L0 5.31089V15.938L11.1019 24L21.978 16.6116ZM10.7611 0.561516L21.3034 5.98903L10.7769 12.1405L0.573372 5.67427L10.7611 0.561516ZM21.3033 6.64978V16.1464L17.1016 18.9467V9.16828L21.3033 6.64978ZM16.411 9.62545V19.4348L11.1003 22.8684V12.7191L16.411 9.62545Z" fill="#4E4C4C"/>
</svg>
